<svg version="1.1" xmlns="http://www.w3.org/2000/svg" viewBox="0 0 366.00000000000006 302.0070360373864" width="366.00000000000006" height="302.0070360373864">
  <!-- svg-source:excalidraw -->
  <!-- payload-type:application/vnd.excalidraw+json --><!-- payload-version:2 --><!-- payload-start -->eyJ2ZXJzaW9uIjoiMSIsImVuY29kaW5nIjoiYnN0cmluZyIsImNvbXByZXNzZWQiOnRydWUsImVuY29kZWQiOiJ4nNVZWXPTSFx1MDAxMH7Pr3CZV1wi5j54y1x1MDAwMUXYXHUwMDEwqDXkYKGoiS3LXCKypEhyXHUwMDBlUvnv2yM7XHUwMDFh+VJMNsmacVVs9fTMtHr6+7pncrPRarWL69Rvv261/auuicJeZi7bL638ws/yMImhi5TPeTLKuqXmoCjS/PWrVyZNvSAsTpPkzOsmw/EwP/KHflxc5KD4XHUwMDBmPLdaN+Xf2kImy5LxXHUwMDFhpditI+ms8CCJyyUx4YhgQZCuNMJ8XHUwMDE3lir8XHUwMDFldPdNlPuux4rao887++xiT1x1MDAwN/xHQN9ud35+iIx2q/bDKOpcdTAwMTTX0fiFTHcwynzXm1x1MDAxN1ly5lx1MDAxZoW9YmBXn5FX4/JcdTAwMDRcdTAwMWPmRmXJKFx1MDAxOMR+nk+NSVLTXHKLaytDqJKaOCjncJIreOJcdTAwMWN5WDFNMFx1MDAxMUwwxarecjxcdTAwMTeeXHUwMDAwXHUwMDE1oolcdTAwMTZK8lx1MDAxObN2kijJrFkvUNmcYaeme1x1MDAxNoB1ca/SKTJcdTAwMTPnqclgq5ze5eSFXHUwMDE19Sg0yVx1MDAxMKGM1lx1MDAxNlx1MDAxYfhhMCjKV8GlXG6jXHUwMDFjccU1Vc5cdTAwMTi/3Fx1MDAxM1witaZcZslKblxySPd6ZWB8n/XowGTpxHPt0tCa8fbxTS2q3OBR2jPjXGLAQlx1MDAxMEq10FxmU1x1MDAxNyNRXHUwMDE4n0FnPIqi2oImK7bDuFx1MDAxN8ZcdTAwMDH03UWni9y9Mnx2f4jtYXDIjrY+/L11eYjRm4Ozk8ooXHUwMDFiQEl3ZM1BXHUwMDFl5YRiXHJ+IFxi/MEwq2lcdTAwMDUmXHUwMDA1XHUwMDFk4Wmkbb9QnFxupSb9t5VRfty736TDXfMlzfyfXHUwMDFm6PmX4+FZePTuPfm6yKRN5Fx0JFxiXHUwMDE34H5GOKdazpmkprdP8jmbXCKTXHUwMDE3O8lwXHUwMDE4XHUwMDE24OJPSVx1MDAxOFx1MDAxN1x1MDAwYl25ZdE88E1vtlx1MDAxN96p3jdcdTAwMGL71M7oWMI296vlcFE+VL+/v1xcqL25LGJtm49VN91G/Xvy7qtcdTAwMTNcdTAwMTYhelZaMZakXGJAKtTqjJVcdTAwMGausq14t6O6P9+f0yOd9Vx1MDAwZk+3156xdDNjaY9cdTAwMTIssaBoXHUwMDFjZk/GWUyWm4yJVoooSFx1MDAxOItIi8yylOVccqkhKp6XpySSnDiHP1x1MDAwN09cdTAwMDEpMKooZsBB2H4kqWmNSYF6QFOaSW3VwJVcdTAwMGbjqf2PO939mOkg6uxcdTAwMTXD3YOdne3i4zLqlEpKKbDQXHUwMDE0Mlx1MDAxYuZzJlx1MDAwMU+BSYpzXHT7RFx1MDAwNMJ/NE8tXHJS2yA8f5OYXG7/qljES4LMXG4rWuKYQfRcdTAwMTFXad3HSs1ZZ01ZiTFlWUlcdFx1MDAwNFx1MDAxNFxy5OT8YcdcdTAwMTMhnouVao6uaIjVlpvUStZMSFBcdTAwMGZhodw+NLBQXHUwMDE1Uje1UFupRp5cbrUxKqqe25dN857++MtcXJ9uhW9HwTvRS/2PJ9f0y2rz3sV9XHUwMDAzd1x1MDAxMqqJc9RcIu7sJ3HRXHR/2Vx1MDAwNaiYkr41wzC6noqrXHUwMDEyRGDJcX2Xc1x1MDAxZuYtx5Mpxa0oXGYswtqR35+GXlx1MDAxMcLxqeouktqedGFhXHUwMDAz02V7c+STZGFcdTAwMTDGJvpcXFx1MDAxOfEgwGMpZ6VcdTAwMTXiKVwiwpaeq0O+OaesKeQhQ0D2gvAoXHRcdTAwMTbq7OlChGBPXHR5V6Q8JeSps6tcdTAwMDHykGORrdBdefhHI765dm2c937Er3Cqe1x1MDAxMOK/rlx1MDAwM+K/Plxm8XQ54DGcdFx1MDAxNINgX1x1MDAxOfDNXHUwMDE125pcdTAwMDJeUOZxKlx1MDAxNVx1MDAwNshcdTAwMGIoa6ZPXHUwMDFlRGhcdTAwMGbgLlx1MDAxMVZcblMl6Fx1MDAxM+b4lVx1MDAwMI+BczilhD1zjv9cdTAwMGbI/D9zvJA1XHUwMDA2fzTEn6xcdTAwMDPiT5pcdTAwMTG//Hp0OeSFgCDXiq5+2dC8fWtcbnmmqCfgtC5cdTAwMDDWQiGJppM8UdpDcJpktt6hpHZcdTAwMTfx2JBcdTAwMDdG8eAwqsBcdTAwMThYXHUwMDBiy9r1Z0VcdTAwMDHO9DtcdTAwMDZgWDKENXcv/yx3XHJEIcJcdTAwMWGxtOJdw8pcdTAwMTeQyEOQhSTkIFx1MDAwMfuBtCBI1dTGJ3tMPI5hz4VUkmIoyuaP9o993Vx1MDAwMFx1MDAxOKGUQ+mlgIb1glx1MDAwYlx1MDAxMGuTwkhRzOFcYqn1gqvaP+m6YXmYzlxm36h///ZtXHUwMDAznlx1MDAxNbrbXHUwMDA2ICaKfoOWjv39gzTblEbSk645/3Wxd95cdTAwMTmsPS0h4WlGXGKUXUA6XGLTaVqixJNcYjzB4dyhoT3h0YO5TFjxkK45YkxEVGlgXHUwMDA08ZD/zdxXiTTxXHUwMDEwl6pWXHUwMDE2PV5cdTAwMTXf+mazb9+akn9rt77FxcBvXHUwMDFkb560Mj8yXHUwMDA1hGM+XGLThYm/llGfpdRfzdIxXGI3JqhumzTtXHUwMDE04MqKXHUwMDAyYbfC3sRNbr32Rehfbs9cdTAwMDfMi37Z7KwlsC2GfLtXN7dcdTAwMWK3/1x1MDAwMo24VssifQ==<!-- payload-end -->
  <defs>
    <style>
      @font-face {
        font-family: "Virgil";
        src: url("https://excalidraw.com/Virgil.woff2");
      }
      @font-face {
        font-family: "Cascadia";
        src: url("https://excalidraw.com/Cascadia.woff2");
      }
    </style>
  </defs>
  <rect x="0" y="0" width="366.00000000000006" height="302.0070360373864" fill="#ffffff"/><g stroke-linecap="round"><g transform="translate(153.2426774362471 133.94936345287505) rotate(0 -41.66668701171875 50.66667175292969)"><path d="M-0.02 0.36 C-13.62 17.18, -68.21 84.96, -82.25 101.98 M-1.49 -0.5 C-15.1 16.49, -69.24 83.33, -82.63 100.19" stroke="#000000" stroke-width="1" fill="none"/></g><g transform="translate(153.2426774362471 133.94936345287505) rotate(0 -41.66668701171875 50.66667175292969)"><path d="M-72.38 73.59 C-74.04 77.28, -75.64 85.43, -80.84 99.59 M-72.1 72.34 C-77.02 83.22, -81.18 95.2, -82.24 99.33" stroke="#000000" stroke-width="1" fill="none"/></g><g transform="translate(153.2426774362471 133.94936345287505) rotate(0 -41.66668701171875 50.66667175292969)"><path d="M-56.38 86.44 C-62.1 86.95, -67.65 91.94, -80.84 99.59 M-56.1 85.19 C-67.36 91.09, -77.9 97.94, -82.24 99.33" stroke="#000000" stroke-width="1" fill="none"/></g></g><g stroke-linecap="round"><g transform="translate(193.2426774362471 136.6160504645938) rotate(0 23.666656494140625 51)"><path d="M-0.46 0.73 C7.44 17.66, 38.79 84.11, 46.72 101.11 M1.5 0.07 C9.85 17.17, 41.66 85.4, 49.11 102.19" stroke="#000000" stroke-width="1" fill="none"/></g><g transform="translate(193.2426774362471 136.6160504645938) rotate(0 23.666656494140625 51)"><path d="M29.28 79.79 C31.63 85.69, 39.46 91.98, 50.12 102.18 M28.98 81.54 C34.18 88.16, 40.66 93.73, 49.99 101.5" stroke="#000000" stroke-width="1" fill="none"/></g><g transform="translate(193.2426774362471 136.6160504645938) rotate(0 23.666656494140625 51)"><path d="M47.94 71.26 C45.71 79.17, 48.99 87.54, 50.12 102.18 M47.65 73.01 C47.11 82.07, 47.89 90.25, 49.99 101.5" stroke="#000000" stroke-width="1" fill="none"/></g></g><g transform="translate(51.24261640109086 243.6160504645938) rotate(0 11.5 22.5)"><text x="0" y="32" font-family="Virgil, Segoe UI Emoji" font-size="36px" fill="#000000" text-anchor="start" style="white-space: pre;" direction="ltr">X</text></g><g transform="translate(160.151729504784 99.1614606208438) rotate(0 15 22.5)"><text x="0" y="32" font-family="Virgil, Segoe UI Emoji" font-size="36px" fill="#000000" text-anchor="start" style="white-space: pre;" direction="ltr">Z</text></g><g transform="translate(237.59557590811306 247.0070360373864) rotate(0 10 22.5)"><text x="0" y="32" font-family="Virgil, Segoe UI Emoji" font-size="36px" fill="#000000" text-anchor="start" style="white-space: pre;" direction="ltr">Y</text></g><g stroke-linecap="round"><g transform="translate(86.7536231884057 266.37198067632846) rotate(0 69.13043478260869 0)"><path d="M0.21 -0.41 C23.54 -0.62, 116.3 -0.98, 139.39 -1.02 M-1.13 -1.67 C22.18 -1.79, 115.81 -0.35, 139.04 -0.01" stroke="#000000" stroke-width="1" fill="none"/></g><g transform="translate(86.7536231884057 266.37198067632846) rotate(0 69.13043478260869 0)"><path d="M110.02 11.72 C116.19 8.11, 124.02 3.12, 140.6 -1.42 M109.87 10.39 C120.67 5.55, 130.43 2.97, 139.03 -0.37" stroke="#000000" stroke-width="1" fill="none"/></g><g transform="translate(86.7536231884057 266.37198067632846) rotate(0 69.13043478260869 0)"><path d="M110.32 -8.8 C116.45 -7.2, 124.21 -6.97, 140.6 -1.42 M110.17 -10.13 C121.02 -7.49, 130.68 -2.59, 139.03 -0.37" stroke="#000000" stroke-width="1" fill="none"/></g></g><g transform="translate(10 10) rotate(0 173.00000000000003 45.5)"><text x="0" y="31.5" font-family="Virgil, Segoe UI Emoji" font-size="36px" fill="#000000" text-anchor="start" style="white-space: pre;" direction="ltr">Z "confounds" </text><text x="0" y="77" font-family="Virgil, Segoe UI Emoji" font-size="36px" fill="#000000" text-anchor="start" style="white-space: pre;" direction="ltr">the X-Y relationship</text></g></svg>