<svg xmlns="http://www.w3.org/2000/svg" viewBox="0 0 800 410" width="800" height="410" role="img" aria-labelledby="title">
<title id="title">Exercise 28 single-intervention SWIG</title>
<defs><marker id="arrow" viewBox="0 0 10 10" refX="9" refY="5" markerWidth="6" markerHeight="6" orient="auto"><path d="M1 1 L9 5 L1 9" fill="none" stroke="#315C43" stroke-width="1.7" stroke-linecap="round" stroke-linejoin="round"/></marker></defs>
<g fill="none" stroke="#315C43" stroke-width="2.2" stroke-linecap="round" stroke-linejoin="round" marker-end="url(#arrow)">
<path d="M 130.0,135.0 L 130.0,252.0"/>
<path d="M 171.3,72.2 C 350,-5 685,5 689.2,252.0"/>
<path d="M 255.0,300.0 L 382.0,300.0"/>
<path d="M 475.0,300.0 L 642.0,300.0"/>
<path d="M 430.0,135.0 L 430.0,252.0"/>
</g>
<circle cx="130" cy="90" r="43" fill="#E6EEDF" stroke="#315C43" stroke-width="1.8"/>
<text x="130" y="90" dy=".34em" text-anchor="middle" font-family="Georgia,serif" font-style="italic" font-size="25" fill="#244635">X(a)</text>
<circle cx="130" cy="300" r="43" fill="#E6EEDF" stroke="#315C43" stroke-width="1.8"/>
<text x="130" y="300" dy=".34em" text-anchor="middle" font-family="Georgia,serif" font-style="italic" font-size="25" fill="#244635">A(a)</text>
<circle cx="219" cy="300" r="34" fill="#FFFDF9" stroke="#315C43" stroke-width="1.8"/>
<text x="219" y="300" dy=".34em" text-anchor="middle" font-family="Georgia,serif" font-style="italic" font-size="25" fill="#244635">a</text>
<circle cx="430" cy="300" r="43" fill="#E6EEDF" stroke="#315C43" stroke-width="1.8"/>
<text x="430" y="300" dy=".34em" text-anchor="middle" font-family="Georgia,serif" font-style="italic" font-size="25" fill="#244635">M(a)</text>
<circle cx="690" cy="300" r="43" fill="#E6EEDF" stroke="#315C43" stroke-width="1.8"/>
<text x="690" y="300" dy=".34em" text-anchor="middle" font-family="Georgia,serif" font-style="italic" font-size="25" fill="#244635">Y(a)</text>
<circle cx="430" cy="90" r="43" fill="#E6EEDF" stroke="#315C43" stroke-width="1.8"/>
<text x="430" y="90" dy=".34em" text-anchor="middle" font-family="Georgia,serif" font-style="italic" font-size="25" fill="#244635">Z(a)</text>
</svg>
